<mxfile host="Electron" agent="Mozilla/5.0 (Windows NT 10.0; Win64; x64) AppleWebKit/537.36 (KHTML, like Gecko) draw.io/26.0.9 Chrome/128.0.6613.186 Electron/32.2.5 Safari/537.36" version="26.0.9">
  <diagram name="cas utilisation" id="npVi_FSyL5HMamY7sAoL">
    <mxGraphModel dx="2448" dy="1856" grid="1" gridSize="10" guides="1" tooltips="1" connect="1" arrows="1" fold="1" page="1" pageScale="1" pageWidth="827" pageHeight="1169" background="#ffffff" math="0" shadow="0">
      <root>
        <mxCell id="0" />
        <mxCell id="1" parent="0" />
        <mxCell id="YeAyZ1LEtQYNFlk5Zdll-1" value="" style="swimlane;startSize=0;fontSize=14;fontStyle=1" parent="1" vertex="1">
          <mxGeometry x="480" y="40" width="960" height="980" as="geometry">
            <mxRectangle x="220" y="140" width="50" height="40" as="alternateBounds" />
          </mxGeometry>
        </mxCell>
        <mxCell id="81pG5Bs6DS2YT8soldCP-4" value="Gérer comptes&amp;nbsp;" style="ellipse;whiteSpace=wrap;html=1;fontSize=14;fontStyle=1;rotation=0;flipV=1;flipH=1;spacingTop=3;" parent="YeAyZ1LEtQYNFlk5Zdll-1" vertex="1">
          <mxGeometry x="258" y="586" width="205" height="50" as="geometry" />
        </mxCell>
        <mxCell id="81pG5Bs6DS2YT8soldCP-5" value="Envoyer argent" style="ellipse;whiteSpace=wrap;html=1;fontSize=14;fontStyle=1;rotation=0;flipV=1;flipH=1;spacingTop=3;" parent="YeAyZ1LEtQYNFlk5Zdll-1" vertex="1">
          <mxGeometry x="258" y="81" width="205" height="50" as="geometry" />
        </mxCell>
        <mxCell id="DMiTSooIrfNzQ06nDnnF-7" value="Gérer flotte" style="ellipse;whiteSpace=wrap;html=1;fontSize=14;fontStyle=1;rotation=0;flipV=1;flipH=1;spacingTop=3;" parent="YeAyZ1LEtQYNFlk5Zdll-1" vertex="1">
          <mxGeometry x="258" y="658" width="205" height="50" as="geometry" />
        </mxCell>
        <mxCell id="kaCewuOL8bynHvhdQ5za-1" value="&lt;span style=&quot;color: light-dark(rgb(0, 0, 0), rgb(255, 255, 255)); background-color: transparent;&quot;&gt;Recevoir message&lt;/span&gt;&amp;nbsp;" style="ellipse;whiteSpace=wrap;html=1;fontSize=14;fontStyle=1;rotation=0;flipV=1;flipH=1;spacingTop=3;" parent="YeAyZ1LEtQYNFlk5Zdll-1" vertex="1">
          <mxGeometry x="258" y="303" width="205" height="50" as="geometry" />
        </mxCell>
        <mxCell id="81pG5Bs6DS2YT8soldCP-3" value="&amp;nbsp;Recevoir argent" style="ellipse;whiteSpace=wrap;html=1;fontSize=14;fontStyle=1;rotation=0;flipV=1;flipH=1;spacingTop=3;" parent="YeAyZ1LEtQYNFlk5Zdll-1" vertex="1">
          <mxGeometry x="258" y="154" width="205" height="50" as="geometry" />
        </mxCell>
        <mxCell id="DMiTSooIrfNzQ06nDnnF-8" value="&lt;div&gt;Envoyer message&amp;nbsp;&lt;/div&gt;" style="ellipse;whiteSpace=wrap;html=1;fontSize=14;fontStyle=1;rotation=0;flipV=1;flipH=1;spacingTop=3;" parent="YeAyZ1LEtQYNFlk5Zdll-1" vertex="1">
          <mxGeometry x="258" y="225" width="205" height="50" as="geometry" />
        </mxCell>
        <mxCell id="DMiTSooIrfNzQ06nDnnF-4" value="&lt;span style=&quot;color: rgb(0, 0, 0); font-family: Helvetica; font-size: 14px; font-style: normal; font-variant-ligatures: normal; font-variant-caps: normal; font-weight: 700; letter-spacing: normal; orphans: 2; text-align: center; text-indent: 0px; text-transform: none; widows: 2; word-spacing: 0px; -webkit-text-stroke-width: 0px; white-space: normal; background-color: rgb(251, 251, 251); text-decoration-thickness: initial; text-decoration-style: initial; text-decoration-color: initial; float: none; display: inline !important;&quot;&gt;Gérer finances&lt;/span&gt;" style="ellipse;whiteSpace=wrap;html=1;fontSize=14;fontStyle=1;rotation=0;flipV=1;flipH=1;spacingTop=3;" parent="YeAyZ1LEtQYNFlk5Zdll-1" vertex="1">
          <mxGeometry x="263" y="440" width="205" height="50" as="geometry" />
        </mxCell>
        <mxCell id="DMiTSooIrfNzQ06nDnnF-5" value="Consulter localisation" style="ellipse;whiteSpace=wrap;html=1;fontSize=14;fontStyle=1;rotation=0;flipV=1;flipH=1;spacingTop=3;" parent="YeAyZ1LEtQYNFlk5Zdll-1" vertex="1">
          <mxGeometry x="258" y="515" width="205" height="50" as="geometry" />
        </mxCell>
        <mxCell id="DMiTSooIrfNzQ06nDnnF-11" value="Accéder aux paramètres&amp;nbsp;" style="ellipse;whiteSpace=wrap;html=1;fontSize=14;fontStyle=1;rotation=0;flipV=1;flipH=1;spacingTop=3;" parent="YeAyZ1LEtQYNFlk5Zdll-1" vertex="1">
          <mxGeometry x="258" y="728" width="205" height="50" as="geometry" />
        </mxCell>
        <mxCell id="YeAyZ1LEtQYNFlk5Zdll-2" value="&lt;span&gt;&lt;font&gt;Flowatch&lt;/font&gt;&lt;/span&gt;" style="text;strokeColor=none;align=center;fillColor=none;html=1;verticalAlign=middle;whiteSpace=wrap;rounded=0;fontSize=23;fontStyle=1" parent="YeAyZ1LEtQYNFlk5Zdll-1" vertex="1">
          <mxGeometry x="420" y="10" width="131" height="29" as="geometry" />
        </mxCell>
        <mxCell id="81pG5Bs6DS2YT8soldCP-6" value="&lt;div&gt;S&#39;authentifier&lt;/div&gt;" style="ellipse;whiteSpace=wrap;html=1;fontSize=14;fontStyle=1" parent="YeAyZ1LEtQYNFlk5Zdll-1" vertex="1">
          <mxGeometry x="730" y="260" width="205" height="320" as="geometry" />
        </mxCell>
        <mxCell id="K6SOX1W0jrYjkYgbbmy3-4" value="&lt;font style=&quot;font-size: 19px;&quot;&gt;&amp;lt;&amp;lt;include&amp;gt;&amp;gt;&lt;/font&gt;" style="html=1;verticalAlign=bottom;labelBackgroundColor=none;endArrow=open;endFill=0;dashed=1;rounded=0;fontSize=12;startSize=8;endSize=8;curved=1;exitX=1;exitY=0.5;exitDx=0;exitDy=0;entryX=0.5;entryY=0;entryDx=0;entryDy=0;" parent="YeAyZ1LEtQYNFlk5Zdll-1" source="81pG5Bs6DS2YT8soldCP-5" target="81pG5Bs6DS2YT8soldCP-6" edge="1">
          <mxGeometry width="160" relative="1" as="geometry">
            <mxPoint x="473" y="701" as="sourcePoint" />
            <mxPoint x="803" y="438" as="targetPoint" />
          </mxGeometry>
        </mxCell>
        <mxCell id="K6SOX1W0jrYjkYgbbmy3-5" value="&lt;font style=&quot;font-size: 19px;&quot;&gt;&amp;lt;&amp;lt;include&amp;gt;&amp;gt;&lt;/font&gt;" style="html=1;verticalAlign=bottom;labelBackgroundColor=none;endArrow=open;endFill=0;dashed=1;rounded=0;fontSize=12;startSize=8;endSize=8;curved=1;exitX=0.048;exitY=0.332;exitDx=0;exitDy=0;entryX=0.329;entryY=0.975;entryDx=0;entryDy=0;entryPerimeter=0;exitPerimeter=0;" parent="YeAyZ1LEtQYNFlk5Zdll-1" source="DMiTSooIrfNzQ06nDnnF-7" target="81pG5Bs6DS2YT8soldCP-6" edge="1">
          <mxGeometry width="160" relative="1" as="geometry">
            <mxPoint x="473" y="693" as="sourcePoint" />
            <mxPoint x="793.3449999999998" y="583.9000000000001" as="targetPoint" />
          </mxGeometry>
        </mxCell>
        <mxCell id="K6SOX1W0jrYjkYgbbmy3-6" value="&lt;font style=&quot;font-size: 19px;&quot;&gt;&amp;lt;&amp;lt;include&amp;gt;&amp;gt;&lt;/font&gt;" style="html=1;verticalAlign=bottom;labelBackgroundColor=none;endArrow=open;endFill=0;dashed=1;rounded=0;fontSize=12;startSize=8;endSize=8;curved=1;entryX=0.198;entryY=0.09;entryDx=0;entryDy=0;entryPerimeter=0;" parent="YeAyZ1LEtQYNFlk5Zdll-1" target="81pG5Bs6DS2YT8soldCP-6" edge="1">
          <mxGeometry width="160" relative="1" as="geometry">
            <mxPoint x="460" y="180" as="sourcePoint" />
            <mxPoint x="751" y="427" as="targetPoint" />
          </mxGeometry>
        </mxCell>
        <mxCell id="K6SOX1W0jrYjkYgbbmy3-7" value="&lt;font style=&quot;font-size: 19px;&quot;&gt;&amp;lt;&amp;lt;include&amp;gt;&amp;gt;&lt;/font&gt;" style="html=1;verticalAlign=bottom;labelBackgroundColor=none;endArrow=open;endFill=0;dashed=1;rounded=0;fontSize=12;startSize=8;endSize=8;curved=1;exitX=1;exitY=0.5;exitDx=0;exitDy=0;entryX=0;entryY=0;entryDx=0;entryDy=0;" parent="YeAyZ1LEtQYNFlk5Zdll-1" source="DMiTSooIrfNzQ06nDnnF-8" target="81pG5Bs6DS2YT8soldCP-6" edge="1">
          <mxGeometry width="160" relative="1" as="geometry">
            <mxPoint x="470" y="190" as="sourcePoint" />
            <mxPoint x="795" y="392" as="targetPoint" />
          </mxGeometry>
        </mxCell>
        <mxCell id="K6SOX1W0jrYjkYgbbmy3-9" value="&lt;font style=&quot;font-size: 19px;&quot;&gt;&amp;lt;&amp;lt;include&amp;gt;&amp;gt;&lt;/font&gt;" style="html=1;verticalAlign=bottom;labelBackgroundColor=none;endArrow=open;endFill=0;dashed=1;rounded=0;fontSize=12;startSize=8;endSize=8;curved=1;exitX=1;exitY=0.5;exitDx=0;exitDy=0;entryX=0.032;entryY=0.365;entryDx=0;entryDy=0;entryPerimeter=0;" parent="YeAyZ1LEtQYNFlk5Zdll-1" source="kaCewuOL8bynHvhdQ5za-1" target="81pG5Bs6DS2YT8soldCP-6" edge="1">
          <mxGeometry width="160" relative="1" as="geometry">
            <mxPoint x="473" y="260" as="sourcePoint" />
            <mxPoint x="759" y="398" as="targetPoint" />
          </mxGeometry>
        </mxCell>
        <mxCell id="K6SOX1W0jrYjkYgbbmy3-10" value="&lt;font style=&quot;font-size: 19px;&quot;&gt;&amp;lt;&amp;lt;include&amp;gt;&amp;gt;&lt;/font&gt;" style="html=1;verticalAlign=bottom;labelBackgroundColor=none;endArrow=open;endFill=0;dashed=1;rounded=0;fontSize=12;startSize=8;endSize=8;curved=1;exitX=1;exitY=0.5;exitDx=0;exitDy=0;" parent="YeAyZ1LEtQYNFlk5Zdll-1" source="DMiTSooIrfNzQ06nDnnF-4" edge="1">
          <mxGeometry width="160" relative="1" as="geometry">
            <mxPoint x="473" y="400" as="sourcePoint" />
            <mxPoint x="730.0078529171478" y="458.6710676154812" as="targetPoint" />
          </mxGeometry>
        </mxCell>
        <mxCell id="K6SOX1W0jrYjkYgbbmy3-11" value="&lt;font style=&quot;font-size: 19px;&quot;&gt;&amp;lt;&amp;lt;include&amp;gt;&amp;gt;&lt;/font&gt;" style="html=1;verticalAlign=bottom;labelBackgroundColor=none;endArrow=open;endFill=0;dashed=1;rounded=0;fontSize=12;startSize=8;endSize=8;curved=1;exitX=1;exitY=0.5;exitDx=0;exitDy=0;entryX=0;entryY=1;entryDx=0;entryDy=0;" parent="YeAyZ1LEtQYNFlk5Zdll-1" source="DMiTSooIrfNzQ06nDnnF-5" target="81pG5Bs6DS2YT8soldCP-6" edge="1">
          <mxGeometry width="160" relative="1" as="geometry">
            <mxPoint x="473" y="474" as="sourcePoint" />
            <mxPoint x="750.7049999999999" y="540.1599999999999" as="targetPoint" />
          </mxGeometry>
        </mxCell>
        <mxCell id="K6SOX1W0jrYjkYgbbmy3-12" value="&lt;font style=&quot;font-size: 19px;&quot;&gt;&amp;lt;&amp;lt;include&amp;gt;&amp;gt;&lt;/font&gt;" style="html=1;verticalAlign=bottom;labelBackgroundColor=none;endArrow=open;endFill=0;dashed=1;rounded=0;fontSize=12;startSize=8;endSize=8;curved=1;exitX=1;exitY=0.5;exitDx=0;exitDy=0;entryX=0.232;entryY=0.906;entryDx=0;entryDy=0;entryPerimeter=0;" parent="YeAyZ1LEtQYNFlk5Zdll-1" source="81pG5Bs6DS2YT8soldCP-4" target="81pG5Bs6DS2YT8soldCP-6" edge="1">
          <mxGeometry width="160" relative="1" as="geometry">
            <mxPoint x="473" y="550" as="sourcePoint" />
            <mxPoint x="771.4099999999999" y="568.5100000000002" as="targetPoint" />
          </mxGeometry>
        </mxCell>
        <mxCell id="K6SOX1W0jrYjkYgbbmy3-3" value="&lt;font style=&quot;font-size: 19px;&quot;&gt;&amp;lt;&amp;lt;include&amp;gt;&amp;gt;&lt;/font&gt;" style="html=1;verticalAlign=bottom;labelBackgroundColor=none;endArrow=open;endFill=0;dashed=1;rounded=0;fontSize=12;startSize=8;endSize=8;curved=1;exitX=1;exitY=0.5;exitDx=0;exitDy=0;" parent="YeAyZ1LEtQYNFlk5Zdll-1" source="DMiTSooIrfNzQ06nDnnF-11" edge="1">
          <mxGeometry width="160" relative="1" as="geometry">
            <mxPoint x="790" y="946" as="sourcePoint" />
            <mxPoint x="833" y="580" as="targetPoint" />
          </mxGeometry>
        </mxCell>
        <mxCell id="K6SOX1W0jrYjkYgbbmy3-13" value="&lt;span style=&quot;color: rgb(0, 0, 0); font-family: Helvetica; font-size: 14px; font-style: normal; font-variant-ligatures: normal; font-variant-caps: normal; font-weight: 700; letter-spacing: normal; orphans: 2; text-align: center; text-indent: 0px; text-transform: none; widows: 2; word-spacing: 0px; -webkit-text-stroke-width: 0px; white-space: normal; background-color: rgb(251, 251, 251); text-decoration-thickness: initial; text-decoration-style: initial; text-decoration-color: initial; float: none; display: inline !important;&quot;&gt;Créer un compte&lt;/span&gt;" style="ellipse;whiteSpace=wrap;html=1;fontSize=14;fontStyle=1;rotation=0;flipV=1;flipH=1;spacingTop=3;" parent="YeAyZ1LEtQYNFlk5Zdll-1" vertex="1">
          <mxGeometry x="258" y="370" width="205" height="50" as="geometry" />
        </mxCell>
        <mxCell id="VJQsuepiQcWrwBPj6oMs-6" value="Administrateur" style="shape=umlActor;verticalLabelPosition=bottom;verticalAlign=top;html=1;fontSize=14;fontStyle=1;strokeWidth=1;" parent="1" vertex="1">
          <mxGeometry x="220" y="730" width="90" height="140" as="geometry" />
        </mxCell>
        <mxCell id="VJQsuepiQcWrwBPj6oMs-10" value="Conducteur" style="shape=umlActor;verticalLabelPosition=bottom;verticalAlign=top;html=1;fontSize=14;fontStyle=1" parent="1" vertex="1">
          <mxGeometry x="290" y="320" width="60" height="140" as="geometry" />
        </mxCell>
        <mxCell id="kaCewuOL8bynHvhdQ5za-6" value="" style="endArrow=none;html=1;rounded=0;fontSize=12;startSize=8;endSize=8;curved=1;entryX=0;entryY=0.5;entryDx=0;entryDy=0;" parent="1" target="DMiTSooIrfNzQ06nDnnF-11" edge="1">
          <mxGeometry relative="1" as="geometry">
            <mxPoint x="300" y="832" as="sourcePoint" />
            <mxPoint x="720" y="642" as="targetPoint" />
          </mxGeometry>
        </mxCell>
        <mxCell id="kaCewuOL8bynHvhdQ5za-13" value="" style="endArrow=none;html=1;rounded=0;fontSize=12;startSize=8;endSize=8;curved=1;entryX=0;entryY=0.5;entryDx=0;entryDy=0;" parent="1" target="DMiTSooIrfNzQ06nDnnF-7" edge="1">
          <mxGeometry relative="1" as="geometry">
            <mxPoint x="290" y="834" as="sourcePoint" />
            <mxPoint x="780" y="672" as="targetPoint" />
          </mxGeometry>
        </mxCell>
        <mxCell id="kaCewuOL8bynHvhdQ5za-14" value="" style="endArrow=none;html=1;rounded=0;fontSize=12;startSize=8;endSize=8;curved=1;entryX=0;entryY=0.5;entryDx=0;entryDy=0;" parent="1" target="81pG5Bs6DS2YT8soldCP-4" edge="1">
          <mxGeometry relative="1" as="geometry">
            <mxPoint x="290" y="834" as="sourcePoint" />
            <mxPoint x="748" y="873" as="targetPoint" />
          </mxGeometry>
        </mxCell>
        <mxCell id="kaCewuOL8bynHvhdQ5za-15" value="" style="endArrow=none;html=1;rounded=0;fontSize=12;startSize=8;endSize=8;curved=1;entryX=0;entryY=0.5;entryDx=0;entryDy=0;" parent="1" target="DMiTSooIrfNzQ06nDnnF-5" edge="1">
          <mxGeometry relative="1" as="geometry">
            <mxPoint x="300" y="832" as="sourcePoint" />
            <mxPoint x="748" y="801" as="targetPoint" />
          </mxGeometry>
        </mxCell>
        <mxCell id="kaCewuOL8bynHvhdQ5za-17" value="" style="endArrow=none;html=1;rounded=0;fontSize=12;startSize=8;endSize=8;curved=1;entryX=0;entryY=0.5;entryDx=0;entryDy=0;" parent="1" target="DMiTSooIrfNzQ06nDnnF-4" edge="1">
          <mxGeometry relative="1" as="geometry">
            <mxPoint x="290" y="832" as="sourcePoint" />
            <mxPoint x="780" y="672" as="targetPoint" />
          </mxGeometry>
        </mxCell>
        <mxCell id="kaCewuOL8bynHvhdQ5za-19" value="" style="endArrow=none;html=1;rounded=0;fontSize=12;startSize=8;endSize=8;curved=1;entryX=0;entryY=0.5;entryDx=0;entryDy=0;" parent="1" target="DMiTSooIrfNzQ06nDnnF-8" edge="1">
          <mxGeometry relative="1" as="geometry">
            <mxPoint x="350" y="440" as="sourcePoint" />
            <mxPoint x="780" y="610" as="targetPoint" />
          </mxGeometry>
        </mxCell>
        <mxCell id="kaCewuOL8bynHvhdQ5za-20" value="" style="endArrow=none;html=1;rounded=0;fontSize=12;startSize=8;endSize=8;curved=1;entryX=0;entryY=0.5;entryDx=0;entryDy=0;exitX=0.846;exitY=0.901;exitDx=0;exitDy=0;exitPerimeter=0;" parent="1" source="VJQsuepiQcWrwBPj6oMs-10" target="kaCewuOL8bynHvhdQ5za-1" edge="1">
          <mxGeometry relative="1" as="geometry">
            <mxPoint x="340" y="440" as="sourcePoint" />
            <mxPoint x="748" y="592" as="targetPoint" />
          </mxGeometry>
        </mxCell>
        <mxCell id="kaCewuOL8bynHvhdQ5za-21" value="" style="endArrow=none;html=1;rounded=0;fontSize=12;startSize=8;endSize=8;curved=1;entryX=0;entryY=0.5;entryDx=0;entryDy=0;" parent="1" target="81pG5Bs6DS2YT8soldCP-3" edge="1">
          <mxGeometry relative="1" as="geometry">
            <mxPoint x="350" y="440" as="sourcePoint" />
            <mxPoint x="748" y="518" as="targetPoint" />
          </mxGeometry>
        </mxCell>
        <mxCell id="kaCewuOL8bynHvhdQ5za-22" value="" style="endArrow=none;html=1;rounded=0;fontSize=12;startSize=8;endSize=8;curved=1;entryX=0;entryY=0.5;entryDx=0;entryDy=0;" parent="1" target="81pG5Bs6DS2YT8soldCP-5" edge="1">
          <mxGeometry relative="1" as="geometry">
            <mxPoint x="350" y="440" as="sourcePoint" />
            <mxPoint x="748" y="369" as="targetPoint" />
          </mxGeometry>
        </mxCell>
        <mxCell id="K6SOX1W0jrYjkYgbbmy3-14" value="Utilisateur" style="shape=umlActor;verticalLabelPosition=bottom;verticalAlign=top;html=1;fontSize=14;fontStyle=1" parent="1" vertex="1">
          <mxGeometry x="70" y="515" width="60" height="140" as="geometry" />
        </mxCell>
        <mxCell id="K6SOX1W0jrYjkYgbbmy3-15" value="" style="endArrow=none;html=1;rounded=0;fontSize=12;startSize=8;endSize=8;curved=1;entryX=0;entryY=0.5;entryDx=0;entryDy=0;" parent="1" target="K6SOX1W0jrYjkYgbbmy3-13" edge="1">
          <mxGeometry relative="1" as="geometry">
            <mxPoint x="190" y="600" as="sourcePoint" />
            <mxPoint x="753" y="515" as="targetPoint" />
          </mxGeometry>
        </mxCell>
        <mxCell id="K6SOX1W0jrYjkYgbbmy3-17" value="" style="endArrow=block;html=1;rounded=0;align=center;verticalAlign=bottom;endFill=0;labelBackgroundColor=none;endSize=16;fontSize=15;curved=1;strokeWidth=2;startSize=33;entryX=1;entryY=1;entryDx=0;entryDy=0;entryPerimeter=0;" parent="1" target="K6SOX1W0jrYjkYgbbmy3-14" edge="1">
          <mxGeometry relative="1" as="geometry">
            <mxPoint x="250" y="740" as="sourcePoint" />
            <mxPoint x="780" y="640" as="targetPoint" />
          </mxGeometry>
        </mxCell>
        <mxCell id="K6SOX1W0jrYjkYgbbmy3-19" value="" style="endArrow=block;html=1;rounded=0;align=center;verticalAlign=bottom;endFill=0;labelBackgroundColor=none;endSize=16;fontSize=15;curved=1;strokeWidth=2;startSize=33;entryX=0.728;entryY=0.351;entryDx=0;entryDy=0;entryPerimeter=0;exitX=0.23;exitY=0.863;exitDx=0;exitDy=0;exitPerimeter=0;" parent="1" source="VJQsuepiQcWrwBPj6oMs-10" target="K6SOX1W0jrYjkYgbbmy3-14" edge="1">
          <mxGeometry relative="1" as="geometry">
            <mxPoint x="260" y="750" as="sourcePoint" />
            <mxPoint x="140" y="665" as="targetPoint" />
          </mxGeometry>
        </mxCell>
        <mxCell id="z5zyLenNot6_jmDMeS5H-1" value="" style="swimlane;startSize=0;fillColor=default;" vertex="1" parent="1">
          <mxGeometry x="30" width="1470" height="1110" as="geometry" />
        </mxCell>
      </root>
    </mxGraphModel>
  </diagram>
</mxfile>
